HIERARCHY
ROOT hip
{
	OFFSET 0.000000 0.000000 0.000000
	CHANNELS 6 Xposition Yposition Zposition Xrotation Zrotation Yrotation 
	JOINT abdomen
	{
		OFFSET 0.000000 3.422050 0.000000
		CHANNELS 3 Xrotation Zrotation Yrotation 
		JOINT chest
		{
			OFFSET 0.000000 8.486693 -0.684411
			CHANNELS 3 Xrotation Zrotation Yrotation 
			JOINT neck
			{
				OFFSET 0.000000 10.266162 -0.273764
				CHANNELS 3 Xrotation Zrotation Yrotation 
				JOINT head
				{
					OFFSET 0.000000 3.148285 0.000000
					CHANNELS 3 Xrotation Zrotation Yrotation 
					End Site
					{
						OFFSET 0.000000 3.148289 0.000000
					}
				}
			}
			JOINT lCollar
			{
				OFFSET 3.422053 6.707223 -0.821293
				CHANNELS 3 Yrotation Zrotation Xrotation 
				JOINT lShldr
				{
					OFFSET 3.285171 0.000000 0.000000
					CHANNELS 3 Zrotation Yrotation Xrotation 
					JOINT lForeArm
					{
						OFFSET 10.129278 0.000000 0.000000
						CHANNELS 3 Yrotation Zrotation Xrotation 
						JOINT lHand
						{
							OFFSET 8.486692 0.000000 0.000000
							CHANNELS 3 Zrotation Yrotation Xrotation 
							End Site
							{
								OFFSET 4.106464 0.000000 0.000000
							}
						}
					}
				}
			}
			JOINT rCollar
			{
				OFFSET -3.558935 6.707223 -0.821293
				CHANNELS 3 Yrotation Zrotation Xrotation 
				JOINT rShldr
				{
					OFFSET -3.148289 0.000000 0.000000
					CHANNELS 3 Zrotation Yrotation Xrotation 
					JOINT rForeArm
					{
						OFFSET -10.266159 0.000000 0.000000
						CHANNELS 3 Yrotation Zrotation Xrotation 
						JOINT rHand
						{
							OFFSET -8.349810 0.000000 0.000000
							CHANNELS 3 Zrotation Yrotation Xrotation 
							End Site
							{
								OFFSET -4.106464 0.000000 0.000000
							}
						}
					}
				}
			}
		}
	}
	JOINT lThigh
	{
		OFFSET 5.338403 -1.642589 1.368821
		CHANNELS 3 Xrotation Zrotation Yrotation 
		JOINT lShin
		{
			OFFSET -2.053232 -20.121670 0.000000
			CHANNELS 3 Xrotation Zrotation Yrotation 
			JOINT lFoot
			{
				OFFSET 0.000000 -19.300380 -1.231939
				CHANNELS 3 Xrotation Yrotation Zrotation 
				End Site
				{
					OFFSET 0.000000 -2.463878 4.653993
				}
			}
		}
	}
	JOINT rThigh
	{
		OFFSET -5.338403 -1.642589 1.368821
		CHANNELS 3 Xrotation Zrotation Yrotation 
		JOINT rShin
		{
			OFFSET 2.053232 -20.121670 0.000000
			CHANNELS 3 Xrotation Zrotation Yrotation 
			JOINT rFoot
			{
				OFFSET 0.000000 -19.300380 -1.231939
				CHANNELS 3 Xrotation Yrotation Zrotation 
				End Site
				{
					OFFSET 0.000000 -2.463878 4.653993
				}
			}
		}
	}
}
MOTION
Frames: 19
Frame Time: 0.033264
0.000000 43.528500 0.000000 0.000000 0.000000 0.000000 0.000000 0.000000 0.000000 0.000000 0.000000 0.000000 0.000000 0.000000 0.000000 0.000000 0.000000 0.000000 0.000000 0.000000 0.000000 0.000000 0.000000 0.000000 0.000000 0.000000 0.000000 0.000000 0.000000 0.000000 0.000000 0.000000 0.000000 0.000000 0.000000 0.000000 0.000000 0.000000 0.000000 0.000000 0.000000 0.000000 0.000000 0.000000 0.000000 0.000000 0.000000 0.000000 0.000000 0.000000 0.000000 0.000000 0.000000 0.000000 0.000000 0.000000 0.000000 0.000000 0.000000 0.000000 
19.995884 16.912365 13.609940 60.998932 0.000000 0.000000 49.481731 -0.821303 -0.803969 38.889187 -0.566891 -0.342917 -31.156273 -13.890763 46.280380 -14.731092 11.685359 18.373688 -4.860435 -7.799099 -10.263852 -17.496780 -75.341423 -62.889240 -31.430384 -52.322086 68.058739 -67.318092 -30.668919 -6.536143 5.126688 7.775545 -10.274793 17.401276 75.244125 -62.959518 31.430838 52.236050 68.016167 67.315979 30.652876 -6.481069 -109.687416 0.258555 -18.219028 153.588699 2.753422 0.167628 -16.980822 -21.351080 -19.454268 -109.680473 -0.269200 18.207956 153.575302 -2.767656 -0.181935 -16.985743 21.343494 19.450317 
19.995884 16.912365 13.662671 61.498520 -0.000000 0.000000 49.093113 -0.821416 -0.803874 38.445034 -0.566907 -0.342954 -31.043520 -13.391265 46.271908 -15.279629 12.017393 18.401806 -4.858917 -7.793441 -10.245337 -17.496780 -75.341423 -62.889240 -31.067652 -51.974686 68.347786 -67.486107 -31.007236 -6.087393 5.510570 7.638643 -9.981240 17.042353 75.100677 -63.318588 30.441118 51.358059 68.800507 67.445831 31.030069 -5.713133 -109.966545 0.305428 -18.149460 153.588699 2.753422 0.167628 -16.980822 -21.351080 -19.454268 -109.959808 -0.315834 18.138086 153.575302 -2.767656 -0.181935 -16.985743 21.343494 19.450317 
19.995884 16.912365 13.715403 61.998264 -0.000000 0.000000 48.704411 -0.821527 -0.803778 38.000767 -0.566923 -0.342991 -30.931034 -12.891591 46.264469 -15.828965 12.349845 18.426716 -4.857400 -7.787779 -10.226819 -17.496780 -75.341423 -62.889240 -30.710461 -51.626114 68.631134 -67.657875 -31.344517 -5.635729 5.895164 7.503648 -9.686760 16.690237 74.956665 -63.670860 29.487635 50.470711 69.547188 67.582230 31.406036 -4.940524 -110.245636 0.352644 -18.080112 153.588699 2.753422 0.167627 -16.980824 -21.351082 -19.454271 -110.239128 -0.362812 18.068441 153.575302 -2.767656 -0.181935 -16.985743 21.343494 19.450317 
19.995884 16.912365 13.768134 62.498142 -0.000000 0.000000 48.315662 -0.821638 -0.803681 37.556400 -0.566939 -0.343027 -30.818808 -12.391766 46.258041 -16.379110 12.682667 18.448402 -4.855887 -7.782119 -10.208305 -17.496780 -75.341423 -62.889240 -30.358709 -51.276421 68.908905 -67.833420 -31.680727 -5.181125 6.280453 7.370579 -9.391373 16.344790 74.812134 -64.016525 28.568464 49.574677 70.258110 67.725227 31.780649 -4.163203 -110.524689 0.400203 -18.010988 153.588699 2.753422 0.167628 -16.980824 -21.351082 -19.454269 -110.518410 -0.410134 17.999018 153.575302 -2.767656 -0.181935 -16.985743 21.343494 19.450317 
19.995884 16.912365 13.820866 62.998119 -0.000000 0.000000 47.926849 -0.821748 -0.803584 37.111965 -0.566956 -0.343064 -30.706820 -11.891809 46.252632 -16.930063 13.015802 18.466839 -4.854374 -7.776459 -10.189791 -17.496771 -75.341408 -62.889240 -30.012230 -50.925610 69.181213 -68.012794 -32.015808 -4.723534 6.666414 7.239451 -9.095101 16.005795 74.667030 -64.355667 27.681818 48.670620 70.935127 67.874893 32.153790 -3.381144 -110.803719 0.448101 -17.942091 153.588684 2.753421 0.167628 -16.980822 -21.351078 -19.454268 -110.797661 -0.457796 17.929817 153.575302 -2.767656 -0.181935 -16.985743 21.343494 19.450317 
19.995884 16.912365 13.873596 63.498207 -0.000000 0.000000 47.537998 -0.821858 -0.803485 36.667473 -0.566973 -0.343100 -30.595064 -11.391743 46.248230 -17.481836 13.349199 18.482010 -4.852863 -7.770798 -10.171275 -17.496780 -75.341423 -62.889240 -29.670929 -50.573715 69.448135 -68.196037 -32.349731 -4.262925 7.053028 7.110277 -8.797968 15.673129 74.521431 -64.688545 26.825949 47.759121 71.579895 68.031273 32.525337 -2.594318 -111.082695 0.496336 -17.873419 153.588699 2.753422 0.167628 -16.980822 -21.351080 -19.454268 -111.076859 -0.505800 17.860844 153.575302 -2.767656 -0.181935 -16.985743 21.343494 19.450317 
19.995884 16.912365 13.926328 63.998367 -0.000000 0.000000 47.149101 -0.821967 -0.803386 36.222900 -0.566990 -0.343136 -30.483513 -10.891587 46.244816 -18.034433 13.682813 18.493906 -4.851353 -7.765135 -10.152759 -17.496780 -75.341423 -62.889240 -29.334692 -50.220810 69.709862 -68.383156 -32.682442 -3.799263 7.440269 6.983075 -8.499992 15.346636 74.375305 -65.015213 25.999228 46.840767 72.194077 68.194435 32.895176 -1.802699 -111.361641 0.544908 -17.804983 153.588699 2.753422 0.167628 -16.980822 -21.351080 -19.454268 -111.356026 -0.554140 17.792103 153.575302 -2.767656 -0.181935 -16.985743 21.343493 19.450315 
19.995884 16.912365 13.979059 64.498581 -0.000000 0.000001 46.760189 -0.822076 -0.803287 35.778309 -0.567007 -0.343172 -30.372162 -10.391369 46.242397 -18.587856 14.016583 18.502499 -4.849847 -7.759473 -10.134246 -17.496780 -75.341423 -62.889240 -29.003395 -49.866913 69.966469 -68.574219 -33.013901 -3.332515 7.828118 6.857860 -8.201197 15.026167 74.228668 -65.335831 25.200125 45.916111 72.779167 68.364418 33.263184 -1.006259 -111.640572 0.593814 -17.736786 153.588699 2.753422 0.167628 -16.980822 -21.351080 -19.454268 -111.635178 -0.602817 17.723604 153.575302 -2.767656 -0.181935 -16.985743 21.343494 19.450317 
19.995884 16.912365 14.031791 64.998848 -0.000000 0.000001 46.371258 -0.822183 -0.803186 35.333687 -0.567025 -0.343208 -30.261000 -9.891105 46.240967 -19.142115 14.350465 18.507780 -4.848341 -7.753808 -10.115732 -17.496780 -75.341423 -62.889240 -28.676931 -49.512047 70.218056 -68.769241 -33.344067 -2.862640 8.216553 6.734648 -7.901608 14.711577 74.081604 -65.650650 24.427187 44.985687 73.336624 68.541290 33.629246 -0.204972 -111.919403 0.643055 -17.668819 153.588699 2.753422 0.167627 -16.980824 -21.351082 -19.454269 -111.914253 -0.651829 17.655334 153.575302 -2.767656 -0.181935 -16.985744 21.343496 19.450317 
19.995884 16.912365 14.084522 65.499107 -0.000000 0.000001 45.982311 -0.822290 -0.803085 34.889046 -0.567043 -0.343244 -30.150017 -9.390821 46.240543 -19.697216 14.684400 18.509727 -4.846839 -7.748146 -10.097219 -17.496780 -75.341423 -62.889240 -28.355202 -49.156269 70.464752 -68.968262 -33.672886 -2.389606 8.605554 6.613451 -7.601248 14.402709 73.934006 -65.959656 23.679005 44.049965 73.867783 68.725113 33.993244 0.601182 -112.198204 0.692624 -17.601089 153.588699 2.753422 0.167628 -16.980824 -21.351082 -19.454269 -112.193260 -0.701174 17.587297 153.575302 -2.767656 -0.181935 -16.985744 21.343494 19.450319 
19.995884 16.912365 14.137254 65.999382 -0.000001 0.000001 45.593365 -0.822396 -0.802983 34.444397 -0.567061 -0.343280 -30.039186 -8.890534 46.241093 -20.253160 15.018334 18.508326 -4.845337 -7.742481 -10.078706 -17.496784 -75.341415 -62.889229 -28.038092 -48.799599 70.706657 -69.171326 -34.000332 -1.913376 8.995092 6.494284 -7.300138 14.099442 73.785988 -66.263092 22.954317 43.109478 74.373985 68.915901 34.355053 1.412218 -112.476952 0.742524 -17.533606 153.588699 2.753422 0.167628 -16.980820 -21.351076 -19.454268 -112.472244 -0.750850 17.519506 153.575302 -2.767656 -0.181935 -16.985743 21.343491 19.450315 
19.995884 16.912365 14.189985 66.499641 -0.000001 0.000001 45.204437 -0.822502 -0.802880 33.999779 -0.567080 -0.343315 -29.928507 -8.390274 46.242615 -20.809959 15.352223 18.503569 -4.843837 -7.736816 -10.060193 -17.496780 -75.341423 -62.889240 -27.725494 -48.442074 70.943871 -69.378448 -34.326340 -1.433921 9.385150 6.377160 -6.998304 13.801634 73.637535 -66.561096 22.251877 42.164639 74.856384 69.113701 34.714535 2.228154 -112.755653 0.792749 -17.466366 153.588699 2.753422 0.167627 -16.980822 -21.351078 -19.454268 -112.751152 -0.800853 17.451956 153.575287 -2.767656 -0.181935 -16.985743 21.343494 19.450315 
19.995884 16.912365 14.242717 66.999855 -0.000001 0.000001 44.815521 -0.822607 -0.802777 33.555172 -0.567098 -0.343351 -29.817957 -7.890053 46.245110 -21.367619 15.686007 18.495432 -4.842339 -7.731151 -10.041678 -17.496780 -75.341423 -62.889240 -27.417301 -48.083691 71.176468 -69.589661 -34.650860 -0.951201 9.775699 6.262092 -6.695768 13.509158 73.488670 -66.853767 21.570538 41.215931 75.316139 69.318573 35.071590 3.049003 -113.034256 0.843300 -17.399366 153.588699 2.753422 0.167628 -16.980822 -21.351080 -19.454268 -113.029991 -0.851183 17.384647 153.575302 -2.767656 -0.181935 -16.985743 21.343494 19.450317 
19.995884 16.912365 14.295448 67.500015 -0.000001 0.000001 44.426632 -0.822711 -0.802673 33.110615 -0.567118 -0.343386 -29.707533 -7.389904 46.248581 -21.926142 16.019634 18.483904 -4.840843 -7.725483 -10.023166 -17.496780 -75.341423 -62.889240 -27.113443 -47.724548 71.404594 -69.805023 -34.973873 -0.465182 10.166720 6.149091 -6.392554 13.221881 73.339340 -67.141190 20.909216 40.263775 75.754349 69.530518 35.426086 3.874777 -113.312828 0.894174 -17.332621 153.588699 2.753422 0.167628 -16.980822 -21.351080 -19.454268 -113.308777 -0.901839 17.317595 153.575302 -2.767656 -0.181935 -16.985743 21.343494 19.450317 
19.995884 16.912365 14.348179 68.000084 -0.000001 0.000001 44.037777 -0.822815 -0.802568 32.666107 -0.567137 -0.343421 -29.597212 -6.889834 46.253014 -22.485542 16.353056 18.468973 -4.839349 -7.719819 -10.004655 -17.496777 -75.341431 -62.889256 -26.813801 -47.364639 71.628334 -70.024551 -35.295307 0.024168 10.558187 6.038171 -6.088687 12.939692 73.189636 -67.423561 20.266878 39.308578 76.171982 69.749596 35.777908 4.705489 -113.591324 0.945368 -17.266125 153.588699 2.753422 0.167628 -16.980822 -21.351080 -19.454269 -113.587479 -0.952816 17.250784 153.575302 -2.767656 -0.181935 -16.985743 21.343494 19.450317 
19.995884 16.912365 14.400910 68.500099 -0.000001 0.000001 43.648975 -0.822918 -0.802463 32.221668 -0.567156 -0.343456 -29.486986 -6.389879 46.258408 -23.045813 16.686213 18.450626 -4.837857 -7.714152 -9.986141 -17.496788 -75.341431 -62.889248 -26.518290 -47.003994 71.847755 -70.248260 -35.615124 0.516881 10.950077 5.929342 -5.784193 12.662463 73.039536 -67.700966 19.642548 38.350739 76.570038 69.975830 36.126915 5.541137 -113.869728 0.996884 -17.199883 153.588699 2.753422 0.167627 -16.980824 -21.351082 -19.454269 -113.866119 -1.004116 17.184231 153.575302 -2.767656 -0.181935 -16.985744 21.343496 19.450317 
19.995884 16.912365 14.453642 68.999969 -0.000001 0.000001 43.260212 -0.823019 -0.802357 31.777311 -0.567176 -0.343491 -29.376842 -5.890054 46.264763 -23.606966 17.019049 18.428848 -4.836366 -7.708484 -9.967629 -17.496784 -75.341415 -62.889229 -26.226810 -46.642643 72.062973 -70.476234 -35.933296 1.012996 11.342365 5.822616 -5.479096 12.390082 72.889076 -67.973534 19.035326 37.390636 76.949387 70.209236 36.473019 6.381720 -114.148071 1.048716 -17.133894 153.588699 2.753422 0.167628 -16.980822 -21.351080 -19.454268 -114.144676 -1.055734 17.117929 153.575287 -2.767656 -0.181935 -16.985743 21.343491 19.450317 
19.995884 16.912365 14.506373 69.499710 -0.000001 0.000001 42.871525 -0.823121 -0.802250 31.333050 -0.567197 -0.343526 -29.266769 -5.390381 46.272068 -24.169014 17.351522 18.403631 -4.834878 -7.702817 -9.949120 -17.496775 -75.341400 -62.889221 -25.939270 -46.280609 72.274040 -70.708443 -36.249741 1.512537 11.735028 5.718003 -5.173421 12.122421 72.738220 -68.241364 18.444334 36.428638 77.310875 70.449829 36.816067 7.227240 -114.426315 1.100864 -17.068163 153.588699 2.753421 0.167628 -16.980820 -21.351076 -19.454264 -114.423172 -1.107670 17.051889 153.575302 -2.767656 -0.181935 -16.985743 21.343494 19.450317 
